<?xml version="1.0" encoding="UTF-8"?>
<svg xmlns="http://www.w3.org/2000/svg" width="960" height="160" viewBox="0 0 960 160" role="img" aria-label="Sketchbook-style UI icons">
  <defs>
    <style>
      .card { fill: #fff6e1; }
      .ink { stroke: #1b1b1b; stroke-opacity: 0.84; stroke-width: 2.5; stroke-linecap: round; stroke-linejoin: round; fill: none; }
      .ghost { stroke: #5b554a; stroke-opacity: 0.36; stroke-width: 1.3; stroke-linecap: round; stroke-linejoin: round; fill: none; }
      .accent { stroke: #2f4a9e; stroke-opacity: 0.92; stroke-width: 2.5; stroke-linecap: round; stroke-linejoin: round; fill: none; }
      .success { stroke: #2b6a4b; stroke-opacity: 0.92; stroke-width: 2.5; stroke-linecap: round; stroke-linejoin: round; fill: none; }
      .warn { stroke: #a16207; stroke-opacity: 0.92; stroke-width: 2.5; stroke-linecap: round; stroke-linejoin: round; fill: none; }
      .danger { stroke: #b42318; stroke-opacity: 0.92; stroke-width: 2.5; stroke-linecap: round; stroke-linejoin: round; fill: none; }
      .label { fill: #5b554a; fill-opacity: 0.95; font-family: Segoe Print, Bradley Hand, Comic Sans MS, Segoe UI, sans-serif; font-size: 12px; }
    </style>
    <filter id="paperNoise" x="-10%" y="-10%" width="120%" height="120%">
      <feTurbulence type="fractalNoise" baseFrequency="0.95" numOctaves="2" seed="19" result="noise"/>
      <feColorMatrix type="matrix" values="1 0 0 0 0 0 1 0 0 0 0 0 1 0 0 0 0 0 0.14 0" result="grain"/>
      <feBlend in="SourceGraphic" in2="grain" mode="multiply"/>
    </filter>
  </defs>

  <g filter="url(#paperNoise)">
    <g transform="translate(24,16) rotate(-1 48 48)">
      <path class="card" d="M8 10 C 24 0, 74 0, 88 10 C 96 26, 96 74, 88 88 C 72 96, 24 96, 10 86 C 0 72, 0 24, 8 10 Z"/>
      <path class="ink" d="M8 10 C 24 0, 74 0, 88 10 C 96 26, 96 74, 88 88 C 72 96, 24 96, 10 86 C 0 72, 0 24, 8 10 Z"/>
      <path class="ghost" d="M12 12 C 28 6, 72 6, 84 12 C 90 28, 90 72, 84 84 C 68 90, 28 90, 14 82 C 6 68, 6 28, 12 12 Z"/>
      <path class="accent" d="M31 50a17 17 0 0 1 28-12"/>
      <path class="accent" d="M54 34c11 2 20 10 20 22 0 11-9 20-20 20-8 0-16-5-19-12"/>
      <path class="accent" d="M55 24l7 14-16 2"/>
      <path class="accent" d="M37 71l-7-14 16-2"/>
      <text class="label" x="48" y="130" text-anchor="middle">refresh</text>
    </g>

    <g transform="translate(144,16) rotate(1.2 48 48)">
      <path class="card" d="M8 10 C 24 0, 74 0, 88 10 C 96 26, 96 74, 88 88 C 72 96, 24 96, 10 86 C 0 72, 0 24, 8 10 Z"/>
      <path class="ink" d="M8 10 C 24 0, 74 0, 88 10 C 96 26, 96 74, 88 88 C 72 96, 24 96, 10 86 C 0 72, 0 24, 8 10 Z"/>
      <path class="ghost" d="M12 12 C 28 6, 72 6, 84 12 C 90 28, 90 72, 84 84 C 68 90, 28 90, 14 82 C 6 68, 6 28, 12 12 Z"/>
      <path class="ink" d="M48 16v64l18-16-18-16 18-16-18-16z"/>
      <path class="ghost" d="M48 48 30 32"/>
      <path class="ghost" d="M48 48 30 64"/>
      <text class="label" x="48" y="130" text-anchor="middle">bluetooth</text>
    </g>

    <g transform="translate(264,16) rotate(-0.8 48 48)">
      <path class="card" d="M8 10 C 24 0, 74 0, 88 10 C 96 26, 96 74, 88 88 C 72 96, 24 96, 10 86 C 0 72, 0 24, 8 10 Z"/>
      <path class="ink" d="M8 10 C 24 0, 74 0, 88 10 C 96 26, 96 74, 88 88 C 72 96, 24 96, 10 86 C 0 72, 0 24, 8 10 Z"/>
      <path class="ghost" d="M12 12 C 28 6, 72 6, 84 12 C 90 28, 90 72, 84 84 C 68 90, 28 90, 14 82 C 6 68, 6 28, 12 12 Z"/>
      <path class="ink" d="M48 76V28"/>
      <path class="ink" d="M48 28l-7 7"/>
      <path class="ink" d="M48 28l7 7"/>
      <path class="ghost" d="M48 48h16"/>
      <path class="ghost" d="M48 60H32"/>
      <circle cx="64" cy="48" r="4" fill="none" stroke="#5b554a" stroke-opacity="0.65" stroke-width="2.5"/>
      <rect x="26" y="56" width="12" height="12" rx="2" fill="none" stroke="#5b554a" stroke-opacity="0.65" stroke-width="2.5"/>
      <path class="ink" d="M48 18v10"/>
      <path class="ink" d="M44 18h8"/>
      <text class="label" x="48" y="130" text-anchor="middle">usb</text>
    </g>

    <g transform="translate(384,16) rotate(0.7 48 48)">
      <path class="card" d="M8 10 C 24 0, 74 0, 88 10 C 96 26, 96 74, 88 88 C 72 96, 24 96, 10 86 C 0 72, 0 24, 8 10 Z"/>
      <path class="ink" d="M8 10 C 24 0, 74 0, 88 10 C 96 26, 96 74, 88 88 C 72 96, 24 96, 10 86 C 0 72, 0 24, 8 10 Z"/>
      <path class="ghost" d="M12 12 C 28 6, 72 6, 84 12 C 90 28, 90 72, 84 84 C 68 90, 28 90, 14 82 C 6 68, 6 28, 12 12 Z"/>
      <path class="ink" d="M22 30c14-4 38-4 52 0 4 10 4 22 0 34-14 4-38 4-52 0-4-10-4-24 0-34z"/>
      <path class="ghost" d="M28 40h6M38 40h6M48 40h6M58 40h6"/>
      <path class="ghost" d="M28 50h10M42 50h10M56 50h10"/>
      <path class="ink" d="M30 60h36"/>
      <text class="label" x="48" y="130" text-anchor="middle">keyboard</text>
    </g>

    <g transform="translate(504,16) rotate(-1 48 48)">
      <path class="card" d="M8 10 C 24 0, 74 0, 88 10 C 96 26, 96 74, 88 88 C 72 96, 24 96, 10 86 C 0 72, 0 24, 8 10 Z"/>
      <path class="ink" d="M8 10 C 24 0, 74 0, 88 10 C 96 26, 96 74, 88 88 C 72 96, 24 96, 10 86 C 0 72, 0 24, 8 10 Z"/>
      <path class="ghost" d="M12 12 C 28 6, 72 6, 84 12 C 90 28, 90 72, 84 84 C 68 90, 28 90, 14 82 C 6 68, 6 28, 12 12 Z"/>
      <path class="success" d="M48 64V28"/>
      <path class="success" d="M36 40l12-12 12 12"/>
      <path class="ink" d="M30 70c10 2 26 2 36 0"/>
      <text class="label" x="48" y="130" text-anchor="middle">upload</text>
    </g>

    <g transform="translate(624,16) rotate(0.8 48 48)">
      <path class="card" d="M8 10 C 24 0, 74 0, 88 10 C 96 26, 96 74, 88 88 C 72 96, 24 96, 10 86 C 0 72, 0 24, 8 10 Z"/>
      <path class="ink" d="M8 10 C 24 0, 74 0, 88 10 C 96 26, 96 74, 88 88 C 72 96, 24 96, 10 86 C 0 72, 0 24, 8 10 Z"/>
      <path class="ghost" d="M12 12 C 28 6, 72 6, 84 12 C 90 28, 90 72, 84 84 C 68 90, 28 90, 14 82 C 6 68, 6 28, 12 12 Z"/>
      <path class="accent" d="M48 32v36"/>
      <path class="accent" d="M36 56l12 12 12-12"/>
      <path class="ink" d="M30 70c10 2 26 2 36 0"/>
      <text class="label" x="48" y="130" text-anchor="middle">download</text>
    </g>

    <g transform="translate(744,16) rotate(-0.6 48 48)">
      <path class="card" d="M8 10 C 24 0, 74 0, 88 10 C 96 26, 96 74, 88 88 C 72 96, 24 96, 10 86 C 0 72, 0 24, 8 10 Z"/>
      <path class="ink" d="M8 10 C 24 0, 74 0, 88 10 C 96 26, 96 74, 88 88 C 72 96, 24 96, 10 86 C 0 72, 0 24, 8 10 Z"/>
      <path class="ghost" d="M12 12 C 28 6, 72 6, 84 12 C 90 28, 90 72, 84 84 C 68 90, 28 90, 14 82 C 6 68, 6 28, 12 12 Z"/>
      <path class="warn" d="M48 22 76 72H20z"/>
      <path class="warn" d="M48 40v14"/>
      <path class="warn" d="M48 62v1"/>
      <text class="label" x="48" y="130" text-anchor="middle">warning</text>
    </g>

    <g transform="translate(864,16) rotate(1 48 48)">
      <path class="card" d="M8 10 C 24 0, 74 0, 88 10 C 96 26, 96 74, 88 88 C 72 96, 24 96, 10 86 C 0 72, 0 24, 8 10 Z"/>
      <path class="ink" d="M8 10 C 24 0, 74 0, 88 10 C 96 26, 96 74, 88 88 C 72 96, 24 96, 10 86 C 0 72, 0 24, 8 10 Z"/>
      <path class="ghost" d="M12 12 C 28 6, 72 6, 84 12 C 90 28, 90 72, 84 84 C 68 90, 28 90, 14 82 C 6 68, 6 28, 12 12 Z"/>
      <circle cx="48" cy="48" r="26" class="danger"/>
      <path class="danger" d="M38 38l20 20"/>
      <path class="danger" d="M58 38l-20 20"/>
      <text class="label" x="48" y="130" text-anchor="middle">error</text>
    </g>
  </g>
</svg>
